{
  "accessors": [
    {
      "name": "Line001_1_0_positions",
      "componentType": 5126,
      "count": 100,
      "min": [
        -65.7040023803711,
        -45.358001708984375,
        -48.711299896240234
      ],
      "max": [
        70.18049621582031,
        -35.358001708984375,
        73.74359893798828
      ],
      "type": "VEC3",
      "bufferView": 0,
      "byteOffset": 0
    },
    {
      "name": "Line001_1_0_normals",
      "componentType": 5126,
      "count": 100,
      "min": [
        -1,
        0,
        -1
      ],
      "max": [
        1,
        1,
        1
      ],
      "type": "VEC3",
      "bufferView": 1,
      "byteOffset": 0
    },
    {
      "name": "Line001_1_0_texcoords",
      "componentType": 5126,
      "count": 100,
      "min": [
        0.05420000106096268,
        0.05090000107884407
      ],
      "max": [
        0.9330999851226807,
        0.9506999850273132
      ],
      "type": "VEC2",
      "bufferView": 2,
      "byteOffset": 0
    },
    {
      "name": "Line001_1_0_indices",
      "componentType": 5123,
      "count": 174,
      "min": [
        0
      ],
      "max": [
        99
      ],
      "type": "SCALAR",
      "bufferView": 3,
      "byteOffset": 0
    },
    {
      "name": "Line002_1_0_positions",
      "componentType": 5126,
      "count": 30,
      "min": [
        -58.77259826660156,
        -36.000999450683594,
        -15.234700202941895
      ],
      "max": [
        -28.736499786376953,
        -26.000999450683594,
        54.65700149536133
      ],
      "type": "VEC3",
      "bufferView": 0,
      "byteOffset": 1200
    },
    {
      "name": "Line002_1_0_normals",
      "componentType": 5126,
      "count": 30,
      "min": [
        -1,
        0,
        -0.9999539256095886
      ],
      "max": [
        1,
        1,
        1
      ],
      "type": "VEC3",
      "bufferView": 1,
      "byteOffset": 1200
    },
    {
      "name": "Line002_1_0_texcoords",
      "componentType": 5126,
      "count": 30,
      "min": [
        0.16429999470710754,
        0.1607999950647354
      ],
      "max": [
        0.7595000267028809,
        0.8392000198364258
      ],
      "type": "VEC2",
      "bufferView": 2,
      "byteOffset": 800
    },
    {
      "name": "Line002_1_0_indices",
      "componentType": 5123,
      "count": 48,
      "min": [
        0
      ],
      "max": [
        29
      ],
      "type": "SCALAR",
      "bufferView": 3,
      "byteOffset": 348
    },
    {
      "name": "Line003_1_0_positions",
      "componentType": 5126,
      "count": 20,
      "min": [
        -27.003599166870117,
        -36.036399841308594,
        39.04669952392578
      ],
      "max": [
        18.050500869750977,
        -26.036399841308594,
        65.47270202636719
      ],
      "type": "VEC3",
      "bufferView": 0,
      "byteOffset": 1560
    },
    {
      "name": "Line003_1_0_normals",
      "componentType": 5126,
      "count": 20,
      "min": [
        -1,
        0,
        -0.9999181032180786
      ],
      "max": [
        1,
        1,
        1
      ],
      "type": "VEC3",
      "bufferView": 1,
      "byteOffset": 1560
    },
    {
      "name": "Line003_1_0_texcoords",
      "componentType": 5126,
      "count": 20,
      "min": [
        0.3474000096321106,
        0.6991000175476074
      ],
      "max": [
        0.5792999863624573,
        0.8899000287055969
      ],
      "type": "VEC2",
      "bufferView": 2,
      "byteOffset": 1040
    },
    {
      "name": "Line003_1_0_indices",
      "componentType": 5123,
      "count": 30,
      "min": [
        0
      ],
      "max": [
        19
      ],
      "type": "SCALAR",
      "bufferView": 3,
      "byteOffset": 444
    },
    {
      "name": "Line004_1_0_positions",
      "componentType": 5126,
      "count": 90,
      "min": [
        -41.02170181274414,
        -36.54790115356445,
        -42.527099609375
      ],
      "max": [
        63.960201263427734,
        -26.54789924621582,
        65.92060089111328
      ],
      "type": "VEC3",
      "bufferView": 0,
      "byteOffset": 1800
    },
    {
      "name": "Line004_1_0_normals",
      "componentType": 5126,
      "count": 90,
      "min": [
        -1,
        0,
        -1
      ],
      "max": [
        1,
        1,
        1
      ],
      "type": "VEC3",
      "bufferView": 1,
      "byteOffset": 1800
    },
    {
      "name": "Line004_1_0_texcoords",
      "componentType": 5126,
      "count": 90,
      "min": [
        0.09040000289678574,
        0.125
      ],
      "max": [
        0.963699996471405,
        0.942799985408783
      ],
      "type": "VEC2",
      "bufferView": 2,
      "byteOffset": 1200
    },
    {
      "name": "Line004_1_0_indices",
      "componentType": 5123,
      "count": 156,
      "min": [
        0
      ],
      "max": [
        89
      ],
      "type": "SCALAR",
      "bufferView": 3,
      "byteOffset": 504
    },
    {
      "name": "Line005_1_0_positions",
      "componentType": 5126,
      "count": 108,
      "min": [
        -25.378000259399414,
        -35.94929885864258,
        -10.470100402832031
      ],
      "max": [
        -22.88909912109375,
        -31.979799270629883,
        -10.070099830627441
      ],
      "type": "VEC3",
      "bufferView": 0,
      "byteOffset": 2880
    },
    {
      "name": "Line005_1_0_normals",
      "componentType": 5126,
      "count": 108,
      "min": [
        -1,
        -1,
        0
      ],
      "max": [
        1,
        0.999971866607666,
        1
      ],
      "type": "VEC3",
      "bufferView": 1,
      "byteOffset": 2880
    },
    {
      "name": "Line005_1_0_indices",
      "componentType": 5123,
      "count": 192,
      "min": [
        0
      ],
      "max": [
        107
      ],
      "type": "SCALAR",
      "bufferView": 3,
      "byteOffset": 816
    },
    {
      "name": "Sphere001_1_0_positions",
      "componentType": 5126,
      "count": 559,
      "min": [
        -24.603500366210938,
        -31.682899475097656,
        -10.693699836730957
      ],
      "max": [
        -23.674800872802734,
        -30.754100799560547,
        -9.765000343322754
      ],
      "type": "VEC3",
      "bufferView": 0,
      "byteOffset": 4176
    },
    {
      "name": "Sphere001_1_0_normals",
      "componentType": 5126,
      "count": 559,
      "min": [
        -1,
        -1,
        -1
      ],
      "max": [
        1,
        1,
        1
      ],
      "type": "VEC3",
      "bufferView": 1,
      "byteOffset": 4176
    },
    {
      "name": "Sphere001_1_0_texcoords",
      "componentType": 5126,
      "count": 559,
      "min": [
        0,
        0
      ],
      "max": [
        1,
        1
      ],
      "type": "VEC2",
      "bufferView": 2,
      "byteOffset": 1920
    },
    {
      "name": "Sphere001_1_0_indices",
      "componentType": 5123,
      "count": 2880,
      "min": [
        0
      ],
      "max": [
        558
      ],
      "type": "SCALAR",
      "bufferView": 3,
      "byteOffset": 1200
    },
    {
      "name": "Line006_1_0_positions",
      "componentType": 5126,
      "count": 125,
      "min": [
        22.778499603271484,
        -35.81380081176758,
        -10.509499549865723
      ],
      "max": [
        25.508399963378906,
        -31.8164005279541,
        -10.293399810791016
      ],
      "type": "VEC3",
      "bufferView": 0,
      "byteOffset": 10884
    },
    {
      "name": "Line006_1_0_normals",
      "componentType": 5126,
      "count": 125,
      "min": [
        -1,
        -1,
        0
      ],
      "max": [
        1,
        1,
        1
      ],
      "type": "VEC3",
      "bufferView": 1,
      "byteOffset": 10884
    },
    {
      "name": "Line006_1_0_indices",
      "componentType": 5123,
      "count": 219,
      "min": [
        0
      ],
      "max": [
        124
      ],
      "type": "SCALAR",
      "bufferView": 3,
      "byteOffset": 6960
    },
    {
      "name": "Sphere002_1_0_positions",
      "componentType": 5126,
      "count": 559,
      "min": [
        23.73780059814453,
        -31.47209930419922,
        -10.810999870300293
      ],
      "max": [
        24.54319953918457,
        -30.66670036315918,
        -10.005599975585938
      ],
      "type": "VEC3",
      "bufferView": 0,
      "byteOffset": 12384
    },
    {
      "name": "Sphere002_1_0_normals",
      "componentType": 5126,
      "count": 559,
      "min": [
        -1,
        -1,
        -1
      ],
      "max": [
        1,
        1,
        1
      ],
      "type": "VEC3",
      "bufferView": 1,
      "byteOffset": 12384
    },
    {
      "name": "Sphere002_1_0_texcoords",
      "componentType": 5126,
      "count": 559,
      "min": [
        0,
        0
      ],
      "max": [
        1,
        1
      ],
      "type": "VEC2",
      "bufferView": 2,
      "byteOffset": 6392
    },
    {
      "name": "Sphere002_1_0_indices",
      "componentType": 5123,
      "count": 2880,
      "min": [
        0
      ],
      "max": [
        558
      ],
      "type": "SCALAR",
      "bufferView": 3,
      "byteOffset": 7400
    }
  ],
  "asset": {
    "generator": "obj2gltf",
    "version": "2.0"
  },
  "buffers": [
    {
      "name": "four",
      "byteLength": 62208,
      "uri": "data:application/octet-stream;base64,"
    }
  ],
  "bufferViews": [
    {
      "name": "bufferView_0",
      "buffer": 0,
      "byteLength": 19092,
      "byteOffset": 0,
      "byteStride": 12,
      "target": 34962
    },
    {
      "name": "bufferView_1",
      "buffer": 0,
      "byteLength": 19092,
      "byteOffset": 19092,
      "byteStride": 12,
      "target": 34962
    },
    {
      "name": "bufferView_2",
      "buffer": 0,
      "byteLength": 10864,
      "byteOffset": 38184,
      "byteStride": 8,
      "target": 34962
    },
    {
      "name": "bufferView_3",
      "buffer": 0,
      "byteLength": 13160,
      "byteOffset": 49048,
      "target": 34963
    }
  ],
  "images": [
    {
      "name": "3-0",
      "uri": "3-0.png"
    },
    {
      "name": "shufaguan",
      "uri": "shufaguan.png"
    },
    {
      "name": "xiyin",
      "uri": "xiyin.png"
    },
    {
      "name": "huihua",
      "uri": "huihua.png"
    }
  ],
  "materials": [
    {
      "name": "Material__28",
      "pbrMetallicRoughness": {
        "baseColorTexture": {
          "index": 0
        },
        "baseColorFactor": [
          1,
          1,
          1,
          1
        ],
        "metallicFactor": 0,
        "roughnessFactor": 0.99
      },
      "emissiveFactor": [
        0,
        0,
        0
      ],
      "alphaMode": "OPAQUE",
      "doubleSided": false
    },
    {
      "name": "Material__31",
      "pbrMetallicRoughness": {
        "baseColorTexture": {
          "index": 1
        },
        "baseColorFactor": [
          1,
          1,
          1,
          1
        ],
        "metallicFactor": 0,
        "roughnessFactor": 0.99
      },
      "emissiveFactor": [
        0,
        0,
        0
      ],
      "alphaMode": "OPAQUE",
      "doubleSided": false
    },
    {
      "name": "Material__30",
      "pbrMetallicRoughness": {
        "baseColorTexture": {
          "index": 2
        },
        "baseColorFactor": [
          1,
          1,
          1,
          1
        ],
        "metallicFactor": 0,
        "roughnessFactor": 0.99
      },
      "emissiveFactor": [
        0,
        0,
        0
      ],
      "alphaMode": "OPAQUE",
      "doubleSided": false
    },
    {
      "name": "Material__32",
      "pbrMetallicRoughness": {
        "baseColorTexture": {
          "index": 3
        },
        "baseColorFactor": [
          1,
          1,
          1,
          1
        ],
        "metallicFactor": 0,
        "roughnessFactor": 0.99
      },
      "emissiveFactor": [
        0,
        0,
        0
      ],
      "alphaMode": "OPAQUE",
      "doubleSided": false
    },
    {
      "name": "07___Default",
      "pbrMetallicRoughness": {
        "baseColorFactor": [
          0.5765,
          0.7098,
          0.8118,
          1
        ],
        "metallicFactor": 0,
        "roughnessFactor": 0.99
      },
      "emissiveFactor": [
        0,
        0,
        0
      ],
      "alphaMode": "OPAQUE",
      "doubleSided": false
    },
    {
      "name": "07___Default-2",
      "pbrMetallicRoughness": {
        "baseColorFactor": [
          0.5765,
          0.7098,
          0.8118,
          1
        ],
        "metallicFactor": 0,
        "roughnessFactor": 0.99
      },
      "emissiveFactor": [
        0,
        0,
        0
      ],
      "alphaMode": "OPAQUE",
      "doubleSided": false
    },
    {
      "name": "08___Default",
      "pbrMetallicRoughness": {
        "baseColorFactor": [
          0.9412,
          0.6314,
          0.6588,
          1
        ],
        "metallicFactor": 0,
        "roughnessFactor": 0.99
      },
      "emissiveFactor": [
        0,
        0,
        0
      ],
      "alphaMode": "OPAQUE",
      "doubleSided": false
    },
    {
      "name": "08___Default-2",
      "pbrMetallicRoughness": {
        "baseColorFactor": [
          0.9412,
          0.6314,
          0.6588,
          1
        ],
        "metallicFactor": 0,
        "roughnessFactor": 0.99
      },
      "emissiveFactor": [
        0,
        0,
        0
      ],
      "alphaMode": "OPAQUE",
      "doubleSided": false
    }
  ],
  "meshes": [
    {
      "name": "Line001_1",
      "primitives": [
        {
          "attributes": {
            "POSITION": 0,
            "NORMAL": 1,
            "TEXCOORD_0": 2
          },
          "indices": 3,
          "material": 0,
          "mode": 4
        }
      ]
    },
    {
      "name": "Line002_1",
      "primitives": [
        {
          "attributes": {
            "POSITION": 4,
            "NORMAL": 5,
            "TEXCOORD_0": 6
          },
          "indices": 7,
          "material": 1,
          "mode": 4
        }
      ]
    },
    {
      "name": "Line003_1",
      "primitives": [
        {
          "attributes": {
            "POSITION": 8,
            "NORMAL": 9,
            "TEXCOORD_0": 10
          },
          "indices": 11,
          "material": 2,
          "mode": 4
        }
      ]
    },
    {
      "name": "Line004_1",
      "primitives": [
        {
          "attributes": {
            "POSITION": 12,
            "NORMAL": 13,
            "TEXCOORD_0": 14
          },
          "indices": 15,
          "material": 3,
          "mode": 4
        }
      ]
    },
    {
      "name": "Line005_1",
      "primitives": [
        {
          "attributes": {
            "POSITION": 16,
            "NORMAL": 17
          },
          "indices": 18,
          "material": 4,
          "mode": 4
        }
      ]
    },
    {
      "name": "Sphere001_1",
      "primitives": [
        {
          "attributes": {
            "POSITION": 19,
            "NORMAL": 20,
            "TEXCOORD_0": 21
          },
          "indices": 22,
          "material": 5,
          "mode": 4
        }
      ]
    },
    {
      "name": "Line006_1",
      "primitives": [
        {
          "attributes": {
            "POSITION": 23,
            "NORMAL": 24
          },
          "indices": 25,
          "material": 6,
          "mode": 4
        }
      ]
    },
    {
      "name": "Sphere002_1",
      "primitives": [
        {
          "attributes": {
            "POSITION": 26,
            "NORMAL": 27,
            "TEXCOORD_0": 28
          },
          "indices": 29,
          "material": 7,
          "mode": 4
        }
      ]
    }
  ],
  "nodes": [
    {
      "name": "Line001",
      "mesh": 0
    },
    {
      "name": "Line002",
      "mesh": 1
    },
    {
      "name": "Line003",
      "mesh": 2
    },
    {
      "name": "Line004",
      "mesh": 3
    },
    {
      "name": "Line005",
      "mesh": 4
    },
    {
      "name": "Sphere001",
      "mesh": 5
    },
    {
      "name": "Line006",
      "mesh": 6
    },
    {
      "name": "Sphere002",
      "mesh": 7
    }
  ],
  "samplers": [
    {
      "wrapS": 10497,
      "wrapT": 10497
    }
  ],
  "scene": 0,
  "scenes": [
    {
      "nodes": [
        0,
        1,
        2,
        3,
        4,
        5,
        6,
        7
      ]
    }
  ],
  "textures": [
    {
      "name": "3-0",
      "sampler": 0,
      "source": 0
    },
    {
      "name": "shufaguan",
      "sampler": 0,
      "source": 1
    },
    {
      "name": "xiyin",
      "sampler": 0,
      "source": 2
    },
    {
      "name": "huihua",
      "sampler": 0,
      "source": 3
    }
  ]
}
