{
  "accessors": [
    {
      "name": "Circle001_1_0_positions",
      "componentType": 5126,
      "count": 140,
      "min": [
        -69.96510314941406,
        -119.9021987915039,
        -55.95790100097656
      ],
      "max": [
        61.878501892089844,
        -109.72309875488281,
        75.88569641113281
      ],
      "type": "VEC3",
      "bufferView": 0,
      "byteOffset": 0
    },
    {
      "name": "Circle001_1_0_normals",
      "componentType": 5126,
      "count": 140,
      "min": [
        -0.9934115409851074,
        0,
        -0.9934115409851074
      ],
      "max": [
        0.9934115409851074,
        1,
        0.9934115409851074
      ],
      "type": "VEC3",
      "bufferView": 1,
      "byteOffset": 0
    },
    {
      "name": "Circle001_1_0_texcoords",
      "componentType": 5126,
      "count": 140,
      "min": [
        0.07190000265836716,
        0.07259999960660934
      ],
      "max": [
        0.9280999898910522,
        0.9286999702453613
      ],
      "type": "VEC2",
      "bufferView": 2,
      "byteOffset": 0
    },
    {
      "name": "Circle001_1_0_indices",
      "componentType": 5123,
      "count": 246,
      "min": [
        0
      ],
      "max": [
        139
      ],
      "type": "SCALAR",
      "bufferView": 3,
      "byteOffset": 0
    },
    {
      "name": "Line001_1_0_positions",
      "componentType": 5126,
      "count": 320,
      "min": [
        -65.0156021118164,
        -109.82679748535156,
        -47.50899887084961
      ],
      "max": [
        -31.493900299072266,
        -99.82679748535156,
        35.0901985168457
      ],
      "type": "VEC3",
      "bufferView": 0,
      "byteOffset": 1680
    },
    {
      "name": "Line001_1_0_normals",
      "componentType": 5126,
      "count": 320,
      "min": [
        -1,
        0,
        -0.9396239519119263
      ],
      "max": [
        1,
        1,
        1
      ],
      "type": "VEC3",
      "bufferView": 1,
      "byteOffset": 1680
    },
    {
      "name": "Line001_1_0_texcoords",
      "componentType": 5126,
      "count": 320,
      "min": [
        0.30059999227523804,
        0.21289999783039093
      ],
      "max": [
        0.7207000255584717,
        0.8467000126838684
      ],
      "type": "VEC2",
      "bufferView": 2,
      "byteOffset": 1120
    },
    {
      "name": "Line001_1_0_indices",
      "componentType": 5123,
      "count": 570,
      "min": [
        0
      ],
      "max": [
        319
      ],
      "type": "SCALAR",
      "bufferView": 3,
      "byteOffset": 492
    },
    {
      "name": "Line002_1_0_positions",
      "componentType": 5126,
      "count": 385,
      "min": [
        -25.738399505615234,
        -109.62120056152344,
        -52.067100524902344
      ],
      "max": [
        44.844398498535156,
        -101.56890106201172,
        -26.91510009765625
      ],
      "type": "VEC3",
      "bufferView": 0,
      "byteOffset": 5520
    },
    {
      "name": "Line002_1_0_normals",
      "componentType": 5126,
      "count": 385,
      "min": [
        -1,
        0,
        -0.9999945759773254
      ],
      "max": [
        0.9904179573059082,
        1,
        1
      ],
      "type": "VEC3",
      "bufferView": 1,
      "byteOffset": 5520
    },
    {
      "name": "Line002_1_0_texcoords",
      "componentType": 5126,
      "count": 385,
      "min": [
        0.2379000037908554,
        0.10580000281333923
      ],
      "max": [
        0.9075000286102295,
        0.7753999829292297
      ],
      "type": "VEC2",
      "bufferView": 2,
      "byteOffset": 3680
    },
    {
      "name": "Line002_1_0_indices",
      "componentType": 5123,
      "count": 687,
      "min": [
        0
      ],
      "max": [
        384
      ],
      "type": "SCALAR",
      "bufferView": 3,
      "byteOffset": 1632
    },
    {
      "name": "Line003_1_0_positions",
      "componentType": 5126,
      "count": 20,
      "min": [
        17.850099563598633,
        -109.63269805908203,
        -20.714000701904297
      ],
      "max": [
        46.03219985961914,
        -99.63269805908203,
        38.45940017700195
      ],
      "type": "VEC3",
      "bufferView": 0,
      "byteOffset": 10140
    },
    {
      "name": "Line003_1_0_normals",
      "componentType": 5126,
      "count": 20,
      "min": [
        -1,
        0,
        -0.9998948574066162
      ],
      "max": [
        1,
        1,
        1
      ],
      "type": "VEC3",
      "bufferView": 1,
      "byteOffset": 10140
    },
    {
      "name": "Line003_1_0_texcoords",
      "componentType": 5126,
      "count": 20,
      "min": [
        0.3407000005245209,
        0.1468999981880188
      ],
      "max": [
        0.7710000276565552,
        0.7874000072479248
      ],
      "type": "VEC2",
      "bufferView": 2,
      "byteOffset": 6760
    },
    {
      "name": "Line003_1_0_indices",
      "componentType": 5123,
      "count": 30,
      "min": [
        0
      ],
      "max": [
        19
      ],
      "type": "SCALAR",
      "bufferView": 3,
      "byteOffset": 3008
    },
    {
      "name": "Line004_1_0_positions",
      "componentType": 5126,
      "count": 95,
      "min": [
        -60.33580017089844,
        -110.01069641113281,
        40.39609909057617
      ],
      "max": [
        21.974700927734375,
        -102.14219665527344,
        70.39900207519531
      ],
      "type": "VEC3",
      "bufferView": 0,
      "byteOffset": 10380
    },
    {
      "name": "Line004_1_0_normals",
      "componentType": 5126,
      "count": 95,
      "min": [
        -0.9978788495063782,
        0,
        -1
      ],
      "max": [
        1,
        1,
        1
      ],
      "type": "VEC3",
      "bufferView": 1,
      "byteOffset": 10380
    },
    {
      "name": "Line004_1_0_texcoords",
      "componentType": 5126,
      "count": 95,
      "min": [
        0.155799999833107,
        0.1873999983072281
      ],
      "max": [
        0.7556999921798706,
        0.7872999906539917
      ],
      "type": "VEC2",
      "bufferView": 2,
      "byteOffset": 6920
    },
    {
      "name": "Line004_1_0_indices",
      "componentType": 5123,
      "count": 165,
      "min": [
        0
      ],
      "max": [
        94
      ],
      "type": "SCALAR",
      "bufferView": 3,
      "byteOffset": 3068
    },
    {
      "name": "Line007_1_0_positions",
      "componentType": 5126,
      "count": 108,
      "min": [
        -25.347200393676758,
        -109.6875991821289,
        -14.718999862670898
      ],
      "max": [
        -22.858299255371094,
        -105.71810150146484,
        -14.319000244140625
      ],
      "type": "VEC3",
      "bufferView": 0,
      "byteOffset": 11520
    },
    {
      "name": "Line007_1_0_normals",
      "componentType": 5126,
      "count": 108,
      "min": [
        -1,
        -1,
        0
      ],
      "max": [
        1,
        0.999971866607666,
        1
      ],
      "type": "VEC3",
      "bufferView": 1,
      "byteOffset": 11520
    },
    {
      "name": "Line007_1_0_indices",
      "componentType": 5123,
      "count": 192,
      "min": [
        0
      ],
      "max": [
        107
      ],
      "type": "SCALAR",
      "bufferView": 3,
      "byteOffset": 3400
    },
    {
      "name": "Sphere003_1_0_positions",
      "componentType": 5126,
      "count": 559,
      "min": [
        -24.57270050048828,
        -105.42120361328125,
        -14.94260025024414
      ],
      "max": [
        -23.64389991760254,
        -104.49240112304688,
        -14.013899803161621
      ],
      "type": "VEC3",
      "bufferView": 0,
      "byteOffset": 12816
    },
    {
      "name": "Sphere003_1_0_normals",
      "componentType": 5126,
      "count": 559,
      "min": [
        -1,
        -1,
        -1
      ],
      "max": [
        1,
        1,
        1
      ],
      "type": "VEC3",
      "bufferView": 1,
      "byteOffset": 12816
    },
    {
      "name": "Sphere003_1_0_texcoords",
      "componentType": 5126,
      "count": 559,
      "min": [
        0,
        0
      ],
      "max": [
        1,
        1
      ],
      "type": "VEC2",
      "bufferView": 2,
      "byteOffset": 7680
    },
    {
      "name": "Sphere003_1_0_indices",
      "componentType": 5123,
      "count": 2880,
      "min": [
        0
      ],
      "max": [
        558
      ],
      "type": "SCALAR",
      "bufferView": 3,
      "byteOffset": 3784
    },
    {
      "name": "Line008_1_0_positions",
      "componentType": 5126,
      "count": 125,
      "min": [
        10.806300163269043,
        -109.5521011352539,
        -14.758399963378906
      ],
      "max": [
        13.536199569702148,
        -105.55470275878906,
        -14.542400360107422
      ],
      "type": "VEC3",
      "bufferView": 0,
      "byteOffset": 19524
    },
    {
      "name": "Line008_1_0_normals",
      "componentType": 5126,
      "count": 125,
      "min": [
        -1,
        -1,
        0
      ],
      "max": [
        1,
        1,
        1
      ],
      "type": "VEC3",
      "bufferView": 1,
      "byteOffset": 19524
    },
    {
      "name": "Line008_1_0_indices",
      "componentType": 5123,
      "count": 219,
      "min": [
        0
      ],
      "max": [
        124
      ],
      "type": "SCALAR",
      "bufferView": 3,
      "byteOffset": 9544
    },
    {
      "name": "Sphere004_1_0_positions",
      "componentType": 5126,
      "count": 559,
      "min": [
        11.76550006866455,
        -105.21040344238281,
        -15.059900283813477
      ],
      "max": [
        12.570899963378906,
        -104.40499877929688,
        -14.254500389099121
      ],
      "type": "VEC3",
      "bufferView": 0,
      "byteOffset": 21024
    },
    {
      "name": "Sphere004_1_0_normals",
      "componentType": 5126,
      "count": 559,
      "min": [
        -1,
        -1,
        -1
      ],
      "max": [
        1,
        1,
        1
      ],
      "type": "VEC3",
      "bufferView": 1,
      "byteOffset": 21024
    },
    {
      "name": "Sphere004_1_0_texcoords",
      "componentType": 5126,
      "count": 559,
      "min": [
        0,
        0
      ],
      "max": [
        1,
        1
      ],
      "type": "VEC2",
      "bufferView": 2,
      "byteOffset": 12152
    },
    {
      "name": "Sphere004_1_0_indices",
      "componentType": 5123,
      "count": 2880,
      "min": [
        0
      ],
      "max": [
        558
      ],
      "type": "SCALAR",
      "bufferView": 3,
      "byteOffset": 9984
    }
  ],
  "asset": {
    "generator": "obj2gltf",
    "version": "2.0"
  },
  "buffers": [
    {
      "name": "three",
      "byteLength": 87832,
      "uri": "data:application/octet-stream;base64,"
    }
  ],
  "bufferViews": [
    {
      "name": "bufferView_0",
      "buffer": 0,
      "byteLength": 27732,
      "byteOffset": 0,
      "byteStride": 12,
      "target": 34962
    },
    {
      "name": "bufferView_1",
      "buffer": 0,
      "byteLength": 27732,
      "byteOffset": 27732,
      "byteStride": 12,
      "target": 34962
    },
    {
      "name": "bufferView_2",
      "buffer": 0,
      "byteLength": 16624,
      "byteOffset": 55464,
      "byteStride": 8,
      "target": 34962
    },
    {
      "name": "bufferView_3",
      "buffer": 0,
      "byteLength": 15744,
      "byteOffset": 72088,
      "target": 34963
    }
  ],
  "images": [
    {
      "name": "4-0",
      "uri": "4-0.png"
    },
    {
      "name": "money",
      "uri": "money.png"
    },
    {
      "name": "minzu",
      "uri": "minzu.png"
    },
    {
      "name": "yuqi",
      "uri": "yuqi.png"
    },
    {
      "name": "furniture",
      "uri": "furniture.png"
    }
  ],
  "materials": [
    {
      "name": "Material__2",
      "pbrMetallicRoughness": {
        "baseColorTexture": {
          "index": 0
        },
        "baseColorFactor": [
          1,
          1,
          1,
          1
        ],
        "metallicFactor": 0,
        "roughnessFactor": 0.99
      },
      "emissiveFactor": [
        0,
        0,
        0
      ],
      "alphaMode": "OPAQUE",
      "doubleSided": false
    },
    {
      "name": "Material__5",
      "pbrMetallicRoughness": {
        "baseColorTexture": {
          "index": 1
        },
        "baseColorFactor": [
          1,
          1,
          1,
          1
        ],
        "metallicFactor": 0,
        "roughnessFactor": 0.99
      },
      "emissiveFactor": [
        0,
        0,
        0
      ],
      "alphaMode": "OPAQUE",
      "doubleSided": false
    },
    {
      "name": "Material__4",
      "pbrMetallicRoughness": {
        "baseColorTexture": {
          "index": 2
        },
        "baseColorFactor": [
          1,
          1,
          1,
          1
        ],
        "metallicFactor": 0,
        "roughnessFactor": 0.99
      },
      "emissiveFactor": [
        0,
        0,
        0
      ],
      "alphaMode": "OPAQUE",
      "doubleSided": false
    },
    {
      "name": "Material__6",
      "pbrMetallicRoughness": {
        "baseColorTexture": {
          "index": 3
        },
        "baseColorFactor": [
          1,
          1,
          1,
          1
        ],
        "metallicFactor": 0,
        "roughnessFactor": 0.99
      },
      "emissiveFactor": [
        0,
        0,
        0
      ],
      "alphaMode": "OPAQUE",
      "doubleSided": false
    },
    {
      "name": "Material__3",
      "pbrMetallicRoughness": {
        "baseColorTexture": {
          "index": 4
        },
        "baseColorFactor": [
          1,
          1,
          1,
          1
        ],
        "metallicFactor": 0,
        "roughnessFactor": 0.99
      },
      "emissiveFactor": [
        0,
        0,
        0
      ],
      "alphaMode": "OPAQUE",
      "doubleSided": false
    },
    {
      "name": "Material__7",
      "pbrMetallicRoughness": {
        "baseColorFactor": [
          0.5765,
          0.7098,
          0.8118,
          1
        ],
        "metallicFactor": 0,
        "roughnessFactor": 0.99
      },
      "emissiveFactor": [
        0,
        0,
        0
      ],
      "alphaMode": "OPAQUE",
      "doubleSided": false
    },
    {
      "name": "Material__7-2",
      "pbrMetallicRoughness": {
        "baseColorFactor": [
          0.5765,
          0.7098,
          0.8118,
          1
        ],
        "metallicFactor": 0,
        "roughnessFactor": 0.99
      },
      "emissiveFactor": [
        0,
        0,
        0
      ],
      "alphaMode": "OPAQUE",
      "doubleSided": false
    },
    {
      "name": "Material__8",
      "pbrMetallicRoughness": {
        "baseColorFactor": [
          0.9412,
          0.6314,
          0.6588,
          1
        ],
        "metallicFactor": 0,
        "roughnessFactor": 0.99
      },
      "emissiveFactor": [
        0,
        0,
        0
      ],
      "alphaMode": "OPAQUE",
      "doubleSided": false
    },
    {
      "name": "Material__8-2",
      "pbrMetallicRoughness": {
        "baseColorFactor": [
          0.9412,
          0.6314,
          0.6588,
          1
        ],
        "metallicFactor": 0,
        "roughnessFactor": 0.99
      },
      "emissiveFactor": [
        0,
        0,
        0
      ],
      "alphaMode": "OPAQUE",
      "doubleSided": false
    }
  ],
  "meshes": [
    {
      "name": "Circle001_1",
      "primitives": [
        {
          "attributes": {
            "POSITION": 0,
            "NORMAL": 1,
            "TEXCOORD_0": 2
          },
          "indices": 3,
          "material": 0,
          "mode": 4
        }
      ]
    },
    {
      "name": "Line001_1",
      "primitives": [
        {
          "attributes": {
            "POSITION": 4,
            "NORMAL": 5,
            "TEXCOORD_0": 6
          },
          "indices": 7,
          "material": 1,
          "mode": 4
        }
      ]
    },
    {
      "name": "Line002_1",
      "primitives": [
        {
          "attributes": {
            "POSITION": 8,
            "NORMAL": 9,
            "TEXCOORD_0": 10
          },
          "indices": 11,
          "material": 2,
          "mode": 4
        }
      ]
    },
    {
      "name": "Line003_1",
      "primitives": [
        {
          "attributes": {
            "POSITION": 12,
            "NORMAL": 13,
            "TEXCOORD_0": 14
          },
          "indices": 15,
          "material": 3,
          "mode": 4
        }
      ]
    },
    {
      "name": "Line004_1",
      "primitives": [
        {
          "attributes": {
            "POSITION": 16,
            "NORMAL": 17,
            "TEXCOORD_0": 18
          },
          "indices": 19,
          "material": 4,
          "mode": 4
        }
      ]
    },
    {
      "name": "Line007_1",
      "primitives": [
        {
          "attributes": {
            "POSITION": 20,
            "NORMAL": 21
          },
          "indices": 22,
          "material": 5,
          "mode": 4
        }
      ]
    },
    {
      "name": "Sphere003_1",
      "primitives": [
        {
          "attributes": {
            "POSITION": 23,
            "NORMAL": 24,
            "TEXCOORD_0": 25
          },
          "indices": 26,
          "material": 6,
          "mode": 4
        }
      ]
    },
    {
      "name": "Line008_1",
      "primitives": [
        {
          "attributes": {
            "POSITION": 27,
            "NORMAL": 28
          },
          "indices": 29,
          "material": 7,
          "mode": 4
        }
      ]
    },
    {
      "name": "Sphere004_1",
      "primitives": [
        {
          "attributes": {
            "POSITION": 30,
            "NORMAL": 31,
            "TEXCOORD_0": 32
          },
          "indices": 33,
          "material": 8,
          "mode": 4
        }
      ]
    }
  ],
  "nodes": [
    {
      "name": "Circle001",
      "mesh": 0
    },
    {
      "name": "Line001",
      "mesh": 1
    },
    {
      "name": "Line002",
      "mesh": 2
    },
    {
      "name": "Line003",
      "mesh": 3
    },
    {
      "name": "Line004",
      "mesh": 4
    },
    {
      "name": "Line007",
      "mesh": 5
    },
    {
      "name": "Sphere003",
      "mesh": 6
    },
    {
      "name": "Line008",
      "mesh": 7
    },
    {
      "name": "Sphere004",
      "mesh": 8
    }
  ],
  "samplers": [
    {
      "wrapS": 10497,
      "wrapT": 10497
    }
  ],
  "scene": 0,
  "scenes": [
    {
      "nodes": [
        0,
        1,
        2,
        3,
        4,
        5,
        6,
        7,
        8
      ]
    }
  ],
  "textures": [
    {
      "name": "4-0",
      "sampler": 0,
      "source": 0
    },
    {
      "name": "money",
      "sampler": 0,
      "source": 1
    },
    {
      "name": "minzu",
      "sampler": 0,
      "source": 2
    },
    {
      "name": "yuqi",
      "sampler": 0,
      "source": 3
    },
    {
      "name": "furniture",
      "sampler": 0,
      "source": 4
    }
  ]
}
