{
  "accessors": [
    {
      "name": "Line004_1_0_positions",
      "componentType": 5126,
      "count": 96,
      "min": [
        4132185.25,
        0,
        -605416.9375
      ],
      "max": [
        4137465.25,
        3100,
        -589536.9375
      ],
      "type": "VEC3",
      "bufferView": 0,
      "byteOffset": 0
    },
    {
      "name": "Line004_1_0_normals",
      "componentType": 5126,
      "count": 96,
      "min": [
        -1,
        -1,
        -1
      ],
      "max": [
        1,
        1,
        1
      ],
      "type": "VEC3",
      "bufferView": 1,
      "byteOffset": 0
    },
    {
      "name": "Line004_1_0_indices",
      "componentType": 5123,
      "count": 168,
      "min": [
        0
      ],
      "max": [
        95
      ],
      "type": "SCALAR",
      "bufferView": 3,
      "byteOffset": 0
    },
    {
      "name": "Plane001_1_0_positions",
      "componentType": 5126,
      "count": 25,
      "min": [
        13.742500305175781,
        0,
        -35.994998931884766
      ],
      "max": [
        68.81759643554688,
        0,
        41.85969924926758
      ],
      "type": "VEC3",
      "bufferView": 0,
      "byteOffset": 1152
    },
    {
      "name": "Plane001_1_0_normals",
      "componentType": 5126,
      "count": 25,
      "min": [
        0,
        1,
        0
      ],
      "max": [
        0,
        1,
        0
      ],
      "type": "VEC3",
      "bufferView": 1,
      "byteOffset": 1152
    },
    {
      "name": "Plane001_1_0_texcoords",
      "componentType": 5126,
      "count": 25,
      "min": [
        0.1395999938249588,
        0.08860000222921371
      ],
      "max": [
        0.9503999948501587,
        0.9314000010490417
      ],
      "type": "VEC2",
      "bufferView": 2,
      "byteOffset": 0
    },
    {
      "name": "Plane001_1_0_indices",
      "componentType": 5123,
      "count": 96,
      "min": [
        0
      ],
      "max": [
        24
      ],
      "type": "SCALAR",
      "bufferView": 3,
      "byteOffset": 336
    },
    {
      "name": "Line006_1_0_positions",
      "componentType": 5126,
      "count": 295,
      "min": [
        16.17690086364746,
        0.0006000000284984708,
        -36.234100341796875
      ],
      "max": [
        60.08380126953125,
        10.00059986114502,
        41.471099853515625
      ],
      "type": "VEC3",
      "bufferView": 0,
      "byteOffset": 1452
    },
    {
      "name": "Line006_1_0_normals",
      "componentType": 5126,
      "count": 295,
      "min": [
        -1,
        0,
        -1
      ],
      "max": [
        1,
        1,
        1
      ],
      "type": "VEC3",
      "bufferView": 1,
      "byteOffset": 1452
    },
    {
      "name": "Line006_1_0_texcoords",
      "componentType": 5126,
      "count": 295,
      "min": [
        0,
        0
      ],
      "max": [
        1,
        1
      ],
      "type": "VEC2",
      "bufferView": 2,
      "byteOffset": 200
    },
    {
      "name": "Line006_1_0_indices",
      "componentType": 5123,
      "count": 525,
      "min": [
        0
      ],
      "max": [
        294
      ],
      "type": "SCALAR",
      "bufferView": 3,
      "byteOffset": 528
    },
    {
      "name": "Line007_1_0_positions",
      "componentType": 5126,
      "count": 120,
      "min": [
        16.381099700927734,
        0.0006000000284984708,
        -26.635799407958984
      ],
      "max": [
        49.56660079956055,
        10.00059986114502,
        10.021400451660156
      ],
      "type": "VEC3",
      "bufferView": 0,
      "byteOffset": 4992
    },
    {
      "name": "Line007_1_0_normals",
      "componentType": 5126,
      "count": 120,
      "min": [
        -1,
        0,
        -1
      ],
      "max": [
        1,
        1,
        1
      ],
      "type": "VEC3",
      "bufferView": 1,
      "byteOffset": 4992
    },
    {
      "name": "Line007_1_0_texcoords",
      "componentType": 5126,
      "count": 120,
      "min": [
        0,
        0
      ],
      "max": [
        1,
        1
      ],
      "type": "VEC2",
      "bufferView": 2,
      "byteOffset": 2560
    },
    {
      "name": "Line007_1_0_indices",
      "componentType": 5123,
      "count": 210,
      "min": [
        0
      ],
      "max": [
        119
      ],
      "type": "SCALAR",
      "bufferView": 3,
      "byteOffset": 1580
    },
    {
      "name": "Box055_1_0_positions",
      "componentType": 5126,
      "count": 24,
      "min": [
        30.1835994720459,
        0.0006000000284984708,
        5.577700138092041
      ],
      "max": [
        37.87310028076172,
        5.163099765777588,
        6.4079999923706055
      ],
      "type": "VEC3",
      "bufferView": 0,
      "byteOffset": 6432
    },
    {
      "name": "Box055_1_0_normals",
      "componentType": 5126,
      "count": 24,
      "min": [
        -1,
        -1,
        -1
      ],
      "max": [
        1,
        1,
        1
      ],
      "type": "VEC3",
      "bufferView": 1,
      "byteOffset": 6432
    },
    {
      "name": "Box055_1_0_texcoords",
      "componentType": 5126,
      "count": 24,
      "min": [
        0,
        0
      ],
      "max": [
        1,
        1
      ],
      "type": "VEC2",
      "bufferView": 2,
      "byteOffset": 3520
    },
    {
      "name": "Box055_1_0_indices",
      "componentType": 5123,
      "count": 36,
      "min": [
        0
      ],
      "max": [
        23
      ],
      "type": "SCALAR",
      "bufferView": 3,
      "byteOffset": 2000
    },
    {
      "name": "Box057_1_0_positions",
      "componentType": 5126,
      "count": 24,
      "min": [
        37.07889938354492,
        0.0006000000284984708,
        6.696800231933594
      ],
      "max": [
        38.198001861572266,
        5.163099765777588,
        20.595699310302734
      ],
      "type": "VEC3",
      "bufferView": 0,
      "byteOffset": 6720
    },
    {
      "name": "Box057_1_0_normals",
      "componentType": 5126,
      "count": 24,
      "min": [
        -1,
        -1,
        -1
      ],
      "max": [
        1,
        1,
        1
      ],
      "type": "VEC3",
      "bufferView": 1,
      "byteOffset": 6720
    },
    {
      "name": "Box057_1_0_texcoords",
      "componentType": 5126,
      "count": 24,
      "min": [
        0,
        0
      ],
      "max": [
        1,
        1
      ],
      "type": "VEC2",
      "bufferView": 2,
      "byteOffset": 3712
    },
    {
      "name": "Box057_1_0_indices",
      "componentType": 5123,
      "count": 36,
      "min": [
        0
      ],
      "max": [
        23
      ],
      "type": "SCALAR",
      "bufferView": 3,
      "byteOffset": 2072
    },
    {
      "name": "Pyramid001_1_0_positions",
      "componentType": 5126,
      "count": 17,
      "min": [
        21.430200576782227,
        0.4560999870300293,
        9.607500076293945
      ],
      "max": [
        24.544599533081055,
        2.7404000759124756,
        12.36870002746582
      ],
      "type": "VEC3",
      "bufferView": 0,
      "byteOffset": 7008
    },
    {
      "name": "Pyramid001_1_0_normals",
      "componentType": 5126,
      "count": 17,
      "min": [
        -1,
        -0.9388644695281982,
        -0.914186418056488
      ],
      "max": [
        0.4052939713001251,
        0.9388644695281982,
        0.914186418056488
      ],
      "type": "VEC3",
      "bufferView": 1,
      "byteOffset": 7008
    },
    {
      "name": "Pyramid001_1_0_texcoords",
      "componentType": 5126,
      "count": 17,
      "min": [
        0,
        0
      ],
      "max": [
        1.086400032043457,
        1
      ],
      "type": "VEC2",
      "bufferView": 2,
      "byteOffset": 3904
    },
    {
      "name": "Pyramid001_1_0_indices",
      "componentType": 5123,
      "count": 24,
      "min": [
        0
      ],
      "max": [
        16
      ],
      "type": "SCALAR",
      "bufferView": 3,
      "byteOffset": 2144
    },
    {
      "name": "Box058_1_0_positions",
      "componentType": 5126,
      "count": 24,
      "min": [
        15.813300132751465,
        0.6875,
        10.252799987792969
      ],
      "max": [
        21.12299919128418,
        2.38700008392334,
        11.427000045776367
      ],
      "type": "VEC3",
      "bufferView": 0,
      "byteOffset": 7212
    },
    {
      "name": "Box058_1_0_normals",
      "componentType": 5126,
      "count": 24,
      "min": [
        -1,
        -1,
        -1
      ],
      "max": [
        1,
        1,
        1
      ],
      "type": "VEC3",
      "bufferView": 1,
      "byteOffset": 7212
    },
    {
      "name": "Box058_1_0_texcoords",
      "componentType": 5126,
      "count": 24,
      "min": [
        0,
        0
      ],
      "max": [
        1,
        1
      ],
      "type": "VEC2",
      "bufferView": 2,
      "byteOffset": 4040
    },
    {
      "name": "Box058_1_0_indices",
      "componentType": 5123,
      "count": 36,
      "min": [
        0
      ],
      "max": [
        23
      ],
      "type": "SCALAR",
      "bufferView": 3,
      "byteOffset": 2192
    },
    {
      "name": "Box059_1_0_positions",
      "componentType": 5126,
      "count": 24,
      "min": [
        10.1697998046875,
        0.6875,
        -12.174599647521973
      ],
      "max": [
        15.479499816894531,
        2.38700008392334,
        -11.000300407409668
      ],
      "type": "VEC3",
      "bufferView": 0,
      "byteOffset": 7500
    },
    {
      "name": "Box059_1_0_normals",
      "componentType": 5126,
      "count": 24,
      "min": [
        -1,
        -1,
        -1
      ],
      "max": [
        1,
        1,
        1
      ],
      "type": "VEC3",
      "bufferView": 1,
      "byteOffset": 7500
    },
    {
      "name": "Box059_1_0_texcoords",
      "componentType": 5126,
      "count": 24,
      "min": [
        0,
        0
      ],
      "max": [
        1,
        1
      ],
      "type": "VEC2",
      "bufferView": 2,
      "byteOffset": 4232
    },
    {
      "name": "Box059_1_0_indices",
      "componentType": 5123,
      "count": 36,
      "min": [
        0
      ],
      "max": [
        23
      ],
      "type": "SCALAR",
      "bufferView": 3,
      "byteOffset": 2264
    },
    {
      "name": "Pyramid002_1_0_positions",
      "componentType": 5126,
      "count": 17,
      "min": [
        6.748199939727783,
        0.4560999870300293,
        -13.116299629211426
      ],
      "max": [
        9.862500190734863,
        2.7404000759124756,
        -10.35509967803955
      ],
      "type": "VEC3",
      "bufferView": 0,
      "byteOffset": 7788
    },
    {
      "name": "Pyramid002_1_0_normals",
      "componentType": 5126,
      "count": 17,
      "min": [
        -0.4052939713001251,
        -0.9388644695281982,
        -0.914186418056488
      ],
      "max": [
        1,
        0.9388644695281982,
        0.914186418056488
      ],
      "type": "VEC3",
      "bufferView": 1,
      "byteOffset": 7788
    },
    {
      "name": "Pyramid002_1_0_texcoords",
      "componentType": 5126,
      "count": 17,
      "min": [
        0,
        0
      ],
      "max": [
        1.086400032043457,
        1
      ],
      "type": "VEC2",
      "bufferView": 2,
      "byteOffset": 4424
    },
    {
      "name": "Pyramid002_1_0_indices",
      "componentType": 5123,
      "count": 24,
      "min": [
        0
      ],
      "max": [
        16
      ],
      "type": "SCALAR",
      "bufferView": 3,
      "byteOffset": 2336
    }
  ],
  "asset": {
    "generator": "obj2gltf",
    "version": "2.0"
  },
  "buffers": [
    {
      "name": "2",
      "byteLength": 22928,
      "uri": "data:application/octet-stream;base64,"
    }
  ],
  "bufferViews": [
    {
      "name": "bufferView_0",
      "buffer": 0,
      "byteLength": 7992,
      "byteOffset": 0,
      "byteStride": 12,
      "target": 34962
    },
    {
      "name": "bufferView_1",
      "buffer": 0,
      "byteLength": 7992,
      "byteOffset": 7992,
      "byteStride": 12,
      "target": 34962
    },
    {
      "name": "bufferView_2",
      "buffer": 0,
      "byteLength": 4560,
      "byteOffset": 15984,
      "byteStride": 8,
      "target": 34962
    },
    {
      "name": "bufferView_3",
      "buffer": 0,
      "byteLength": 2384,
      "byteOffset": 20544,
      "target": 34963
    }
  ],
  "images": [
    {
      "name": "cgaxis_models_42_30_02",
      "uri": "cgaxis_models_42_30_02.jpg"
    },
    {
      "name": "61deed1afd98cf038d75d2d95c421de",
      "uri": "61deed1afd98cf038d75d2d95c421de.png"
    },
    {
      "name": "8e475bef8806561514a1d5f0d749546",
      "uri": "8e475bef8806561514a1d5f0d749546.png"
    }
  ],
  "materials": [
    {
      "name": "wire_087225198",
      "pbrMetallicRoughness": {
        "baseColorFactor": [
          0.3412,
          0.8824,
          0.7765,
          1
        ],
        "metallicFactor": 0,
        "roughnessFactor": 0.968
      },
      "emissiveFactor": [
        0,
        0,
        0
      ],
      "alphaMode": "OPAQUE",
      "doubleSided": false
    },
    {
      "name": "Material__32",
      "pbrMetallicRoughness": {
        "baseColorTexture": {
          "index": 0
        },
        "baseColorFactor": [
          1,
          1,
          1,
          1
        ],
        "metallicFactor": 0,
        "roughnessFactor": 0.99
      },
      "emissiveFactor": [
        0,
        0,
        0
      ],
      "alphaMode": "OPAQUE",
      "doubleSided": false
    },
    {
      "name": "Material__66",
      "pbrMetallicRoughness": {
        "baseColorTexture": {
          "index": 1
        },
        "baseColorFactor": [
          1,
          1,
          1,
          1
        ],
        "metallicFactor": 0,
        "roughnessFactor": 0.99
      },
      "emissiveFactor": [
        0,
        0,
        0
      ],
      "alphaMode": "OPAQUE",
      "doubleSided": false
    },
    {
      "name": "Material__69",
      "pbrMetallicRoughness": {
        "baseColorTexture": {
          "index": 1
        },
        "baseColorFactor": [
          1,
          1,
          1,
          1
        ],
        "metallicFactor": 0,
        "roughnessFactor": 0.99
      },
      "emissiveFactor": [
        0,
        0,
        0
      ],
      "alphaMode": "OPAQUE",
      "doubleSided": false
    },
    {
      "name": "Material__70",
      "pbrMetallicRoughness": {
        "baseColorTexture": {
          "index": 1
        },
        "baseColorFactor": [
          1,
          1,
          1,
          1
        ],
        "metallicFactor": 0,
        "roughnessFactor": 0.99
      },
      "emissiveFactor": [
        0,
        0,
        0
      ],
      "alphaMode": "OPAQUE",
      "doubleSided": false
    },
    {
      "name": "Material__71",
      "pbrMetallicRoughness": {
        "baseColorTexture": {
          "index": 1
        },
        "baseColorFactor": [
          1,
          1,
          1,
          1
        ],
        "metallicFactor": 0,
        "roughnessFactor": 0.99
      },
      "emissiveFactor": [
        0,
        0,
        0
      ],
      "alphaMode": "OPAQUE",
      "doubleSided": false
    },
    {
      "name": "Material__85",
      "pbrMetallicRoughness": {
        "baseColorTexture": {
          "index": 2
        },
        "baseColorFactor": [
          1,
          1,
          1,
          1
        ],
        "metallicFactor": 0,
        "roughnessFactor": 0.99
      },
      "emissiveFactor": [
        0,
        0,
        0
      ],
      "alphaMode": "OPAQUE",
      "doubleSided": false
    },
    {
      "name": "Material__84",
      "pbrMetallicRoughness": {
        "baseColorTexture": {
          "index": 2
        },
        "baseColorFactor": [
          1,
          1,
          1,
          1
        ],
        "metallicFactor": 0,
        "roughnessFactor": 0.99
      },
      "emissiveFactor": [
        0,
        0,
        0
      ],
      "alphaMode": "OPAQUE",
      "doubleSided": false
    },
    {
      "name": "Material__83",
      "pbrMetallicRoughness": {
        "baseColorTexture": {
          "index": 2
        },
        "baseColorFactor": [
          1,
          1,
          1,
          1
        ],
        "metallicFactor": 0,
        "roughnessFactor": 0.99
      },
      "emissiveFactor": [
        0,
        0,
        0
      ],
      "alphaMode": "OPAQUE",
      "doubleSided": false
    },
    {
      "name": "Material__82",
      "pbrMetallicRoughness": {
        "baseColorTexture": {
          "index": 2
        },
        "baseColorFactor": [
          1,
          1,
          1,
          1
        ],
        "metallicFactor": 0,
        "roughnessFactor": 0.99
      },
      "emissiveFactor": [
        0,
        0,
        0
      ],
      "alphaMode": "OPAQUE",
      "doubleSided": false
    }
  ],
  "meshes": [
    {
      "name": "Line004_1",
      "primitives": [
        {
          "attributes": {
            "POSITION": 0,
            "NORMAL": 1
          },
          "indices": 2,
          "material": 0,
          "mode": 4
        }
      ]
    },
    {
      "name": "Plane001_1",
      "primitives": [
        {
          "attributes": {
            "POSITION": 3,
            "NORMAL": 4,
            "TEXCOORD_0": 5
          },
          "indices": 6,
          "material": 1,
          "mode": 4
        }
      ]
    },
    {
      "name": "Line006_1",
      "primitives": [
        {
          "attributes": {
            "POSITION": 7,
            "NORMAL": 8,
            "TEXCOORD_0": 9
          },
          "indices": 10,
          "material": 2,
          "mode": 4
        }
      ]
    },
    {
      "name": "Line007_1",
      "primitives": [
        {
          "attributes": {
            "POSITION": 11,
            "NORMAL": 12,
            "TEXCOORD_0": 13
          },
          "indices": 14,
          "material": 3,
          "mode": 4
        }
      ]
    },
    {
      "name": "Box055_1",
      "primitives": [
        {
          "attributes": {
            "POSITION": 15,
            "NORMAL": 16,
            "TEXCOORD_0": 17
          },
          "indices": 18,
          "material": 4,
          "mode": 4
        }
      ]
    },
    {
      "name": "Box057_1",
      "primitives": [
        {
          "attributes": {
            "POSITION": 19,
            "NORMAL": 20,
            "TEXCOORD_0": 21
          },
          "indices": 22,
          "material": 5,
          "mode": 4
        }
      ]
    },
    {
      "name": "Pyramid001_1",
      "primitives": [
        {
          "attributes": {
            "POSITION": 23,
            "NORMAL": 24,
            "TEXCOORD_0": 25
          },
          "indices": 26,
          "material": 6,
          "mode": 4
        }
      ]
    },
    {
      "name": "Box058_1",
      "primitives": [
        {
          "attributes": {
            "POSITION": 27,
            "NORMAL": 28,
            "TEXCOORD_0": 29
          },
          "indices": 30,
          "material": 7,
          "mode": 4
        }
      ]
    },
    {
      "name": "Box059_1",
      "primitives": [
        {
          "attributes": {
            "POSITION": 31,
            "NORMAL": 32,
            "TEXCOORD_0": 33
          },
          "indices": 34,
          "material": 8,
          "mode": 4
        }
      ]
    },
    {
      "name": "Pyramid002_1",
      "primitives": [
        {
          "attributes": {
            "POSITION": 35,
            "NORMAL": 36,
            "TEXCOORD_0": 37
          },
          "indices": 38,
          "material": 9,
          "mode": 4
        }
      ]
    }
  ],
  "nodes": [
    {
      "name": "Line004",
      "mesh": 0
    },
    {
      "name": "Plane001",
      "mesh": 1
    },
    {
      "name": "Line006",
      "mesh": 2
    },
    {
      "name": "Line007",
      "mesh": 3
    },
    {
      "name": "Box055",
      "mesh": 4
    },
    {
      "name": "Box057",
      "mesh": 5
    },
    {
      "name": "Pyramid001",
      "mesh": 6
    },
    {
      "name": "Box058",
      "mesh": 7
    },
    {
      "name": "Box059",
      "mesh": 8
    },
    {
      "name": "Pyramid002",
      "mesh": 9
    }
  ],
  "samplers": [
    {
      "wrapS": 10497,
      "wrapT": 10497
    }
  ],
  "scene": 0,
  "scenes": [
    {
      "nodes": [
        0,
        1,
        2,
        3,
        4,
        5,
        6,
        7,
        8,
        9
      ]
    }
  ],
  "textures": [
    {
      "name": "cgaxis_models_42_30_02",
      "sampler": 0,
      "source": 0
    },
    {
      "name": "61deed1afd98cf038d75d2d95c421de",
      "sampler": 0,
      "source": 1
    },
    {
      "name": "8e475bef8806561514a1d5f0d749546",
      "sampler": 0,
      "source": 2
    }
  ]
}
