{
  "accessors": [
    {
      "name": "Line005_1_0_positions",
      "componentType": 5126,
      "count": 100,
      "min": [
        -50.6859016418457,
        9.139800071716309,
        -35.16239929199219
      ],
      "max": [
        67.581298828125,
        19.139799118041992,
        66.6426010131836
      ],
      "type": "VEC3",
      "bufferView": 0,
      "byteOffset": 0
    },
    {
      "name": "Line005_1_0_normals",
      "componentType": 5126,
      "count": 100,
      "min": [
        -1,
        0,
        -1
      ],
      "max": [
        1,
        1,
        1
      ],
      "type": "VEC3",
      "bufferView": 1,
      "byteOffset": 0
    },
    {
      "name": "Line005_1_0_texcoords",
      "componentType": 5126,
      "count": 100,
      "min": [
        0.04470000043511391,
        0.04569999873638153
      ],
      "max": [
        0.9316999912261963,
        0.9506999850273132
      ],
      "type": "VEC2",
      "bufferView": 2,
      "byteOffset": 0
    },
    {
      "name": "Line005_1_0_indices",
      "componentType": 5123,
      "count": 174,
      "min": [
        0
      ],
      "max": [
        99
      ],
      "type": "SCALAR",
      "bufferView": 3,
      "byteOffset": 0
    },
    {
      "name": "Line006_1_0_positions",
      "componentType": 5126,
      "count": 100,
      "min": [
        -21.645700454711914,
        18.819599151611328,
        -34.72919845581055
      ],
      "max": [
        67.30740356445312,
        28.819599151611328,
        66.931396484375
      ],
      "type": "VEC3",
      "bufferView": 0,
      "byteOffset": 1200
    },
    {
      "name": "Line006_1_0_normals",
      "componentType": 5126,
      "count": 100,
      "min": [
        -1,
        0,
        -1
      ],
      "max": [
        1,
        1,
        1
      ],
      "type": "VEC3",
      "bufferView": 1,
      "byteOffset": 1200
    },
    {
      "name": "Line006_1_0_texcoords",
      "componentType": 5126,
      "count": 100,
      "min": [
        0.27889999747276306,
        0.07240000367164612
      ],
      "max": [
        0.9524999856948853,
        0.9412999749183655
      ],
      "type": "VEC2",
      "bufferView": 2,
      "byteOffset": 800
    },
    {
      "name": "Line006_1_0_indices",
      "componentType": 5123,
      "count": 174,
      "min": [
        0
      ],
      "max": [
        99
      ],
      "type": "SCALAR",
      "bufferView": 3,
      "byteOffset": 348
    },
    {
      "name": "Line007_1_0_positions",
      "componentType": 5126,
      "count": 108,
      "min": [
        -15.005000114440918,
        19.205400466918945,
        -6.079999923706055
      ],
      "max": [
        -12.51609992980957,
        23.17490005493164,
        -5.679999828338623
      ],
      "type": "VEC3",
      "bufferView": 0,
      "byteOffset": 2400
    },
    {
      "name": "Line007_1_0_normals",
      "componentType": 5126,
      "count": 108,
      "min": [
        -1,
        -1,
        0
      ],
      "max": [
        1,
        0.999971866607666,
        1
      ],
      "type": "VEC3",
      "bufferView": 1,
      "byteOffset": 2400
    },
    {
      "name": "Line007_1_0_indices",
      "componentType": 5123,
      "count": 192,
      "min": [
        0
      ],
      "max": [
        107
      ],
      "type": "SCALAR",
      "bufferView": 3,
      "byteOffset": 696
    },
    {
      "name": "Sphere001_1_0_positions",
      "componentType": 5126,
      "count": 559,
      "min": [
        -14.230400085449219,
        23.471799850463867,
        -6.303699970245361
      ],
      "max": [
        -13.3016996383667,
        24.40060043334961,
        -5.374899864196777
      ],
      "type": "VEC3",
      "bufferView": 0,
      "byteOffset": 3696
    },
    {
      "name": "Sphere001_1_0_normals",
      "componentType": 5126,
      "count": 559,
      "min": [
        -1,
        -1,
        -1
      ],
      "max": [
        1,
        1,
        1
      ],
      "type": "VEC3",
      "bufferView": 1,
      "byteOffset": 3696
    },
    {
      "name": "Sphere001_1_0_texcoords",
      "componentType": 5126,
      "count": 559,
      "min": [
        0,
        0
      ],
      "max": [
        1,
        1
      ],
      "type": "VEC2",
      "bufferView": 2,
      "byteOffset": 1600
    },
    {
      "name": "Sphere001_1_0_indices",
      "componentType": 5123,
      "count": 2880,
      "min": [
        0
      ],
      "max": [
        558
      ],
      "type": "SCALAR",
      "bufferView": 3,
      "byteOffset": 1080
    },
    {
      "name": "Line008_1_0_positions",
      "componentType": 5126,
      "count": 125,
      "min": [
        27.130599975585938,
        19.340999603271484,
        -6.119500160217285
      ],
      "max": [
        29.86050033569336,
        23.338300704956055,
        -5.90339994430542
      ],
      "type": "VEC3",
      "bufferView": 0,
      "byteOffset": 10404
    },
    {
      "name": "Line008_1_0_normals",
      "componentType": 5126,
      "count": 125,
      "min": [
        -1,
        -1,
        0
      ],
      "max": [
        1,
        1,
        1
      ],
      "type": "VEC3",
      "bufferView": 1,
      "byteOffset": 10404
    },
    {
      "name": "Line008_1_0_indices",
      "componentType": 5123,
      "count": 219,
      "min": [
        0
      ],
      "max": [
        124
      ],
      "type": "SCALAR",
      "bufferView": 3,
      "byteOffset": 6840
    },
    {
      "name": "Sphere002_1_0_positions",
      "componentType": 5126,
      "count": 559,
      "min": [
        28.08989906311035,
        23.682600021362305,
        -6.421000003814697
      ],
      "max": [
        28.895299911499023,
        24.488000869750977,
        -5.615600109100342
      ],
      "type": "VEC3",
      "bufferView": 0,
      "byteOffset": 11904
    },
    {
      "name": "Sphere002_1_0_normals",
      "componentType": 5126,
      "count": 559,
      "min": [
        -1,
        -1,
        -1
      ],
      "max": [
        1,
        1,
        1
      ],
      "type": "VEC3",
      "bufferView": 1,
      "byteOffset": 11904
    },
    {
      "name": "Sphere002_1_0_texcoords",
      "componentType": 5126,
      "count": 559,
      "min": [
        0,
        0
      ],
      "max": [
        1,
        1
      ],
      "type": "VEC2",
      "bufferView": 2,
      "byteOffset": 6072
    },
    {
      "name": "Sphere002_1_0_indices",
      "componentType": 5123,
      "count": 2880,
      "min": [
        0
      ],
      "max": [
        558
      ],
      "type": "SCALAR",
      "bufferView": 3,
      "byteOffset": 7280
    }
  ],
  "asset": {
    "generator": "obj2gltf",
    "version": "2.0"
  },
  "buffers": [
    {
      "name": "two",
      "byteLength": 60808,
      "uri": "data:application/octet-stream;base64,"
    }
  ],
  "bufferViews": [
    {
      "name": "bufferView_0",
      "buffer": 0,
      "byteLength": 18612,
      "byteOffset": 0,
      "byteStride": 12,
      "target": 34962
    },
    {
      "name": "bufferView_1",
      "buffer": 0,
      "byteLength": 18612,
      "byteOffset": 18612,
      "byteStride": 12,
      "target": 34962
    },
    {
      "name": "bufferView_2",
      "buffer": 0,
      "byteLength": 10544,
      "byteOffset": 37224,
      "byteStride": 8,
      "target": 34962
    },
    {
      "name": "bufferView_3",
      "buffer": 0,
      "byteLength": 13040,
      "byteOffset": 47768,
      "target": 34963
    }
  ],
  "images": [
    {
      "name": "2-0",
      "uri": "2-0.png"
    },
    {
      "name": "taoci",
      "uri": "taoci.png"
    }
  ],
  "materials": [
    {
      "name": "Material__2",
      "pbrMetallicRoughness": {
        "baseColorTexture": {
          "index": 0
        },
        "baseColorFactor": [
          1,
          1,
          1,
          1
        ],
        "metallicFactor": 0,
        "roughnessFactor": 0.99
      },
      "emissiveFactor": [
        0,
        0,
        0
      ],
      "alphaMode": "OPAQUE",
      "doubleSided": false
    },
    {
      "name": "Material__3",
      "pbrMetallicRoughness": {
        "baseColorTexture": {
          "index": 1
        },
        "baseColorFactor": [
          1,
          1,
          1,
          1
        ],
        "metallicFactor": 0,
        "roughnessFactor": 0.99
      },
      "emissiveFactor": [
        0,
        0,
        0
      ],
      "alphaMode": "OPAQUE",
      "doubleSided": false
    },
    {
      "name": "07___Default",
      "pbrMetallicRoughness": {
        "baseColorFactor": [
          0.5765,
          0.7098,
          0.8118,
          1
        ],
        "metallicFactor": 0,
        "roughnessFactor": 0.99
      },
      "emissiveFactor": [
        0,
        0,
        0
      ],
      "alphaMode": "OPAQUE",
      "doubleSided": false
    },
    {
      "name": "07___Default-2",
      "pbrMetallicRoughness": {
        "baseColorFactor": [
          0.5765,
          0.7098,
          0.8118,
          1
        ],
        "metallicFactor": 0,
        "roughnessFactor": 0.99
      },
      "emissiveFactor": [
        0,
        0,
        0
      ],
      "alphaMode": "OPAQUE",
      "doubleSided": false
    },
    {
      "name": "08___Default",
      "pbrMetallicRoughness": {
        "baseColorFactor": [
          0.9412,
          0.6314,
          0.6588,
          1
        ],
        "metallicFactor": 0,
        "roughnessFactor": 0.99
      },
      "emissiveFactor": [
        0,
        0,
        0
      ],
      "alphaMode": "OPAQUE",
      "doubleSided": false
    },
    {
      "name": "08___Default-2",
      "pbrMetallicRoughness": {
        "baseColorFactor": [
          0.9412,
          0.6314,
          0.6588,
          1
        ],
        "metallicFactor": 0,
        "roughnessFactor": 0.99
      },
      "emissiveFactor": [
        0,
        0,
        0
      ],
      "alphaMode": "OPAQUE",
      "doubleSided": false
    }
  ],
  "meshes": [
    {
      "name": "Line005_1",
      "primitives": [
        {
          "attributes": {
            "POSITION": 0,
            "NORMAL": 1,
            "TEXCOORD_0": 2
          },
          "indices": 3,
          "material": 0,
          "mode": 4
        }
      ]
    },
    {
      "name": "Line006_1",
      "primitives": [
        {
          "attributes": {
            "POSITION": 4,
            "NORMAL": 5,
            "TEXCOORD_0": 6
          },
          "indices": 7,
          "material": 1,
          "mode": 4
        }
      ]
    },
    {
      "name": "Line007_1",
      "primitives": [
        {
          "attributes": {
            "POSITION": 8,
            "NORMAL": 9
          },
          "indices": 10,
          "material": 2,
          "mode": 4
        }
      ]
    },
    {
      "name": "Sphere001_1",
      "primitives": [
        {
          "attributes": {
            "POSITION": 11,
            "NORMAL": 12,
            "TEXCOORD_0": 13
          },
          "indices": 14,
          "material": 3,
          "mode": 4
        }
      ]
    },
    {
      "name": "Line008_1",
      "primitives": [
        {
          "attributes": {
            "POSITION": 15,
            "NORMAL": 16
          },
          "indices": 17,
          "material": 4,
          "mode": 4
        }
      ]
    },
    {
      "name": "Sphere002_1",
      "primitives": [
        {
          "attributes": {
            "POSITION": 18,
            "NORMAL": 19,
            "TEXCOORD_0": 20
          },
          "indices": 21,
          "material": 5,
          "mode": 4
        }
      ]
    }
  ],
  "nodes": [
    {
      "name": "Line005",
      "mesh": 0
    },
    {
      "name": "Line006",
      "mesh": 1
    },
    {
      "name": "Line007",
      "mesh": 2
    },
    {
      "name": "Sphere001",
      "mesh": 3
    },
    {
      "name": "Line008",
      "mesh": 4
    },
    {
      "name": "Sphere002",
      "mesh": 5
    }
  ],
  "samplers": [
    {
      "wrapS": 10497,
      "wrapT": 10497
    }
  ],
  "scene": 0,
  "scenes": [
    {
      "nodes": [
        0,
        1,
        2,
        3,
        4,
        5
      ]
    }
  ],
  "textures": [
    {
      "name": "2-0",
      "sampler": 0,
      "source": 0
    },
    {
      "name": "taoci",
      "sampler": 0,
      "source": 1
    }
  ]
}
